<svg xmlns="http://www.w3.org/2000/svg" width="24" height="24" fill="none"><path fill="#6780ff" d="M11.895 18.777c.262.12.428.4.38.68l-.133.756a.515.515 0 0 1-.717.396c-.935-.415-2.354-1.22-3.804-2.473l-1.627.976a.64.64 0 0 0-.236.842.64.64 0 0 1-.362.9l-.298.099a.93.93 0 0 1-.712-.053l-.108-.054a2.52 2.52 0 0 1-1.124-1.124l-.054-.108a.93.93 0 0 1-.053-.713l.099-.297a.64.64 0 0 1 .9-.363c.305.153.67.05.842-.235l.975-1.628c-1.264-1.464-2.072-2.896-2.484-3.83a.515.515 0 0 1 .373-.713l.699-.157c.287-.064.582.104.707.375.218.475.587 1.153 1.12 1.917a10 10 0 0 0 1.683 2.188 9.8 9.8 0 0 0 2.236 1.655c.676.452 1.272.77 1.698.964"/><path fill="#18ffb5" d="M19.814 3A1.17 1.17 0 0 1 21 4.186l-.107 5.769a2.21 2.21 0 0 1-1.178 1.923l-9.106 4.874a8 8 0 0 1-1.103-.732l3.428-4.307c.334-.42-.227-.981-.647-.647L7.98 14.493a8 8 0 0 1-.786-1.196l4.927-9.013a2.21 2.21 0 0 1 1.924-1.177z"/><path fill="#182357" d="M20.065 1.51a2.675 2.675 0 0 1 2.425 2.424l.01.28-.106 5.768a3.71 3.71 0 0 1-1.972 3.218v.001l-7.886 4.22c.798.374 1.395 1.27 1.216 2.294l-.132.756c-.214 1.226-1.53 2.074-2.803 1.51-.868-.386-2.06-1.05-3.324-2.02l-.176.105a2.13 2.13 0 0 1-1.446 2.21l-.003.002-.298.099v-.001a2.43 2.43 0 0 1-1.852-.133l-.109-.054h-.003a4.02 4.02 0 0 1-1.794-1.796l-.001-.003-.054-.108a2.43 2.43 0 0 1-.133-1.854l.098-.296.002-.004a2.13 2.13 0 0 1 2.208-1.447l.105-.176c-.98-1.279-1.647-2.482-2.03-3.353h-.001c-.541-1.232.238-2.517 1.418-2.781l.7-.156v-.001c1.058-.236 2.004.376 2.39 1.199l4.292-7.849a3.71 3.71 0 0 1 3.212-1.958l5.768-.106zM4.45 11.678l-.699.157a.515.515 0 0 0-.373.713c.412.934 1.22 2.366 2.484 3.83l-.975 1.628-.074.098a.645.645 0 0 1-.768.137.64.64 0 0 0-.9.363l-.099.297a.93.93 0 0 0 .053.713l.054.108a2.5 2.5 0 0 0 1.124 1.124l.108.054c.223.112.48.13.712.053l.298-.099a.64.64 0 0 0 .391-.833l-.029-.067a.64.64 0 0 1 .236-.842l1.627-.976c1.45 1.253 2.87 2.058 3.804 2.473a.51.51 0 0 0 .682-.276l.036-.12.131-.757a.63.63 0 0 0-.286-.627l-.093-.052a12.4 12.4 0 0 1-1.698-.964 9.8 9.8 0 0 1-2.236-1.655 10 10 0 0 1-1.68-2.188 13 13 0 0 1-1.121-1.917c-.125-.271-.42-.439-.707-.375m9.594-8.571a2.21 2.21 0 0 0-1.924 1.177l-4.927 9.013c.216.403.48.807.786 1.196l4.307-3.427c.42-.334.981.227.647.647L9.506 16.02c.36.283.732.527 1.103.732l9.106-4.874a2.21 2.21 0 0 0 1.17-1.772l.008-.151L21 4.186A1.17 1.17 0 0 0 19.814 3z"/><path fill="#fff" d="M11.55 2.362c.103-.48.783-.484.89-.004l.016.063a1.47 1.47 0 0 0 1.172 1.134c.496.087.496.803 0 .89l-.105.024a1.47 1.47 0 0 0-1.067 1.11l-.014.063a.45.45 0 0 1-.516.353h-.006l-.07-.018a.44.44 0 0 1-.3-.339l-.01-.054a1.465 1.465 0 0 0-1.17-1.14c-.493-.087-.493-.8 0-.888a1.46 1.46 0 0 0 1.169-1.141z"/><path fill="#182357" d="M10.083 2.046c.44-2.042 3.346-2.07 3.817-.03l.016.062.001.006c2.11.4 2.11 3.432 0 3.832l-.01.047-.002.009c-.242 1.076-1.196 1.572-2.033 1.523h-.134l-.176-.044-.072-.018-.053-.013-.053-.017a1.94 1.94 0 0 1-1.3-1.448l-.002-.012-.003-.01-.004-.02c-2.1-.404-2.1-3.422 0-3.827l.004-.024.002-.007zm2.358.312c-.108-.48-.788-.477-.892.004l-.01.053a1.46 1.46 0 0 1-1.168 1.14c-.494.089-.495.802 0 .89a1.46 1.46 0 0 1 1.168 1.14l.011.053c.04.18.159.293.3.34l.07.017h.006a.45.45 0 0 0 .485-.26l.03-.093.015-.062a1.47 1.47 0 0 1 1.007-1.092l.06-.019q.052-.014.105-.023c.464-.083.494-.717.088-.868l-.088-.023a1.47 1.47 0 0 1-1.146-1.029l-.026-.105z"/></svg>